<svg width="16" height="17" viewBox="0 0 16 17" fill="none" xmlns="http://www.w3.org/2000/svg">
<path d="M14.5369 7.19434H13.9999V7.16668H7.99992V9.83334H11.7676C11.2179 11.3857 9.74092 12.5 7.99992 12.5C5.79092 12.5 3.99992 10.709 3.99992 8.50001C3.99992 6.29101 5.79092 4.50001 7.99992 4.50001C9.01958 4.50001 9.94725 4.88468 10.6536 5.51301L12.5393 3.62734C11.3486 2.51768 9.75592 1.83334 7.99992 1.83334C4.31825 1.83334 1.33325 4.81834 1.33325 8.50001C1.33325 12.1817 4.31825 15.1667 7.99992 15.1667C11.6816 15.1667 14.6666 12.1817 14.6666 8.50001C14.6666 8.05301 14.6206 7.61668 14.5369 7.19434Z" fill="#FFC107"/>
<path d="M2.10205 5.39701L4.29238 7.00334C4.88505 5.53601 6.32038 4.50001 8.00005 4.50001C9.01972 4.50001 9.94738 4.88468 10.6537 5.51301L12.5394 3.62734C11.3487 2.51768 9.75605 1.83334 8.00005 1.83334C5.43938 1.83334 3.21872 3.27901 2.10205 5.39701Z" fill="#FF3D00"/>
<path d="M7.99994 15.1667C9.72194 15.1667 11.2866 14.5077 12.4696 13.436L10.4063 11.69C9.71446 12.2161 8.86909 12.5007 7.99994 12.5C6.26594 12.5 4.79361 11.3943 4.23894 9.85132L2.06494 11.5263C3.16827 13.6853 5.40894 15.1667 7.99994 15.1667Z" fill="#4CAF50"/>
<path d="M14.537 7.19432H14V7.16666H8V9.83332H11.7677C11.5047 10.5721 11.0311 11.2177 10.4053 11.6903L10.4063 11.6897L12.4697 13.4357C12.3237 13.5683 14.6667 11.8333 14.6667 8.49999C14.6667 8.05299 14.6207 7.61666 14.537 7.19432Z" fill="#1976D2"/>
</svg>
